<svg xmlns="http://www.w3.org/2000/svg" xmlns:xlink="http://www.w3.org/1999/xlink" width="500" zoomAndPan="magnify" viewBox="0 0 375 374.999991" height="500" preserveAspectRatio="xMidYMid meet" version="1.0"><defs><g/><clipPath id="c3fd7dc157"><path d="M 187.5 0 C 83.945312 0 0 83.945312 0 187.5 C 0 291.054688 83.945312 375 187.5 375 C 291.054688 375 375 291.054688 375 187.5 C 375 83.945312 291.054688 0 187.5 0 Z M 187.5 0 " clip-rule="nonzero"/></clipPath><clipPath id="5632f4130a"><path d="M 56.09375 56.09375 L 318.90625 56.09375 L 318.90625 318.90625 L 56.09375 318.90625 Z M 56.09375 56.09375 " clip-rule="nonzero"/></clipPath><clipPath id="51048e99d7"><path d="M 187.5 56.09375 C 114.925781 56.09375 56.09375 114.925781 56.09375 187.5 C 56.09375 260.074219 114.925781 318.90625 187.5 318.90625 C 260.074219 318.90625 318.90625 260.074219 318.90625 187.5 C 318.90625 114.925781 260.074219 56.09375 187.5 56.09375 Z M 187.5 56.09375 " clip-rule="nonzero"/></clipPath><clipPath id="e5cbe2ec88"><path d="M 187.300781 172.789062 L 306.109375 172.789062 L 306.109375 248.75 L 187.300781 248.75 Z M 187.300781 172.789062 " clip-rule="nonzero"/></clipPath><clipPath id="58555a1ebd"><path d="M 201.339844 215.535156 L 311.472656 215.535156 L 311.472656 242.773438 L 201.339844 242.773438 Z M 201.339844 215.535156 " clip-rule="nonzero"/></clipPath><clipPath id="be2ef68ad4"><path d="M 69.75 170 L 187.511719 170 L 187.511719 248.75 L 69.75 248.75 Z M 69.75 170 " clip-rule="nonzero"/></clipPath><clipPath id="9762c4d17d"><path d="M 63.222656 212 L 174 212 L 174 243 L 63.222656 243 Z M 63.222656 212 " clip-rule="nonzero"/></clipPath><clipPath id="b05fb2106b"><path d="M 229 104.898438 L 238 104.898438 L 238 113 L 229 113 Z M 229 104.898438 " clip-rule="nonzero"/></clipPath><clipPath id="2fa89f3f1a"><path d="M 22.457031 191.226562 L 42.6875 191.226562 L 42.6875 211.457031 L 22.457031 211.457031 Z M 22.457031 191.226562 " clip-rule="nonzero"/></clipPath><clipPath id="f5f14442dd"><path d="M 32.574219 191.226562 C 26.988281 191.226562 22.457031 195.753906 22.457031 201.339844 C 22.457031 206.925781 26.988281 211.457031 32.574219 211.457031 C 38.160156 211.457031 42.6875 206.925781 42.6875 201.339844 C 42.6875 195.753906 38.160156 191.226562 32.574219 191.226562 Z M 32.574219 191.226562 " clip-rule="nonzero"/></clipPath><clipPath id="6d8eda5f8f"><path d="M 332.628906 191.226562 L 352.859375 191.226562 L 352.859375 211.457031 L 332.628906 211.457031 Z M 332.628906 191.226562 " clip-rule="nonzero"/></clipPath><clipPath id="88488e074d"><path d="M 342.746094 191.226562 C 337.15625 191.226562 332.628906 195.753906 332.628906 201.339844 C 332.628906 206.925781 337.15625 211.457031 342.746094 211.457031 C 348.332031 211.457031 352.859375 206.925781 352.859375 201.339844 C 352.859375 195.753906 348.332031 191.226562 342.746094 191.226562 Z M 342.746094 191.226562 " clip-rule="nonzero"/></clipPath></defs><g clip-path="url(#c3fd7dc157)"><rect x="-37.5" width="450" fill="#2b4769" y="-37.499999" height="449.999989" fill-opacity="1"/></g><g clip-path="url(#5632f4130a)"><g clip-path="url(#51048e99d7)"><path fill="#ffffff" d="M 56.09375 56.09375 L 318.90625 56.09375 L 318.90625 318.90625 L 56.09375 318.90625 Z M 56.09375 56.09375 " fill-opacity="1" fill-rule="nonzero"/></g></g><g clip-path="url(#e5cbe2ec88)"><path fill="#4dafaf" d="M 270.148438 172.898438 L 306.078125 210.613281 C 226.113281 210.777344 187.308594 248.75 187.308594 248.75 C 187.308594 248.75 206.929688 186.539062 270.148438 172.898438 " fill-opacity="1" fill-rule="nonzero"/></g><g clip-path="url(#58555a1ebd)"><path fill="#2b4769" d="M 311.746094 240.066406 C 259.109375 227.242188 220.675781 235.777344 201.363281 242.621094 C 217.074219 232.675781 245.984375 218.851562 288.539062 215.703125 L 311.746094 240.066406 " fill-opacity="1" fill-rule="nonzero"/></g><g clip-path="url(#be2ef68ad4)"><path fill="#4dafaf" d="M 107.1875 170.03125 L 69.957031 206.457031 C 149.867188 209.4375 187.308594 248.75 187.308594 248.75 C 187.308594 248.75 169.890625 185.886719 107.1875 170.03125 " fill-opacity="1" fill-rule="nonzero"/></g><g clip-path="url(#9762c4d17d)"><path fill="#2b4769" d="M 63.253906 235.695312 C 116.308594 224.730469 154.417969 234.613281 173.480469 242.128906 C 158.125 231.640625 129.722656 216.804688 87.304688 212.160156 L 63.253906 235.695312 " fill-opacity="1" fill-rule="nonzero"/></g><path fill="#cea348" d="M 278.527344 150.988281 L 273.371094 164.476562 C 239.996094 171.234375 218.179688 192.320312 205.742188 208.847656 C 216.257812 189.710938 238.371094 160.5 278.527344 150.988281 " fill-opacity="1" fill-rule="nonzero"/><path fill="#cea348" d="M 97.453125 147.28125 L 102.164062 161.023438 C 136.492188 168.507812 158.195312 190.914062 170.292969 208.222656 C 160.285156 188.382812 138.632812 157.695312 97.453125 147.28125 " fill-opacity="1" fill-rule="nonzero"/><path fill="#2b4769" d="M 188.25 195.332031 C 188.25 195.332031 169.582031 162.167969 143.738281 154.261719 C 143.738281 154.261719 181.113281 186.476562 187.375 245.050781 C 195.691406 186.730469 234.175781 155.855469 234.175781 155.855469 C 208.070312 162.847656 188.25 195.332031 188.25 195.332031 " fill-opacity="1" fill-rule="nonzero"/><path fill="#2b4769" d="M 200.945312 163.753906 C 201.074219 156.347656 195.746094 150.25 189.042969 150.132812 C 182.34375 150.011719 176.804688 155.921875 176.671875 163.324219 C 176.542969 170.730469 181.871094 176.828125 188.574219 176.945312 C 195.273438 177.0625 200.8125 171.15625 200.945312 163.753906 " fill-opacity="1" fill-rule="nonzero"/><path fill="#4dafaf" d="M 204.921875 119.382812 L 182.984375 118.996094 L 182.601562 140.933594 L 204.535156 141.320312 L 204.921875 119.382812 " fill-opacity="1" fill-rule="nonzero"/><path fill="#4dafaf" d="M 216.082031 108.609375 L 205.117188 108.417969 L 204.921875 119.382812 L 215.890625 119.578125 L 216.082031 108.609375 " fill-opacity="1" fill-rule="nonzero"/><path fill="#2b4769" d="M 237.738281 135.019531 L 226.773438 134.828125 L 226.578125 145.792969 L 237.546875 145.988281 L 237.738281 135.019531 " fill-opacity="1" fill-rule="nonzero"/><path fill="#cea348" d="M 218.332031 130.589844 L 213.0625 130.496094 L 212.96875 135.769531 L 218.238281 135.863281 L 218.332031 130.589844 " fill-opacity="1" fill-rule="nonzero"/><path fill="#cea348" d="M 269.992188 122.097656 L 259.875 121.917969 L 259.695312 132.039062 L 269.816406 132.214844 L 269.992188 122.097656 " fill-opacity="1" fill-rule="nonzero"/><path fill="#a8b2b1" d="M 250.816406 145.226562 L 245.542969 145.136719 L 245.453125 150.40625 L 250.722656 150.5 L 250.816406 145.226562 " fill-opacity="1" fill-rule="nonzero"/><g clip-path="url(#b05fb2106b)"><path fill="#cea348" d="M 237.839844 105.039062 L 229.933594 104.898438 L 229.796875 112.804688 L 237.699219 112.941406 L 237.839844 105.039062 " fill-opacity="1" fill-rule="nonzero"/></g><path fill="#a8b2b1" d="M 247.25 116.132812 L 239.265625 115.992188 L 239.125 123.980469 L 247.109375 124.121094 L 247.25 116.132812 " fill-opacity="1" fill-rule="nonzero"/><g clip-path="url(#2fa89f3f1a)"><g clip-path="url(#f5f14442dd)"><path fill="#4dafaf" d="M 22.457031 191.226562 L 42.6875 191.226562 L 42.6875 211.457031 L 22.457031 211.457031 Z M 22.457031 191.226562 " fill-opacity="1" fill-rule="nonzero"/></g></g><g clip-path="url(#6d8eda5f8f)"><g clip-path="url(#88488e074d)"><path fill="#cea348" d="M 332.628906 191.226562 L 352.859375 191.226562 L 352.859375 211.457031 L 332.628906 211.457031 Z M 332.628906 191.226562 " fill-opacity="1" fill-rule="nonzero"/></g></g><g fill="#ffffff" fill-opacity="1"><g transform="translate(40.859944, 177.405346)"><g><path d="M -14.28125 -23.4375 C -15.601562 -23.238281 -16.738281 -22.703125 -17.6875 -21.828125 C -18.632812 -20.953125 -19.253906 -19.65625 -19.546875 -17.9375 C -19.929688 -15.664062 -19.429688 -13.742188 -18.046875 -12.171875 C -16.660156 -10.597656 -14.566406 -9.570312 -11.765625 -9.09375 C -9.066406 -8.632812 -6.742188 -8.953125 -4.796875 -10.046875 C -2.859375 -11.148438 -1.707031 -12.789062 -1.34375 -14.96875 C -1.28125 -15.289062 -1.25 -15.679688 -1.25 -16.140625 C -1.257812 -16.609375 -1.335938 -17.171875 -1.484375 -17.828125 C -1.640625 -18.492188 -1.867188 -19.125 -2.171875 -19.71875 C -2.484375 -20.3125 -2.96875 -20.875 -3.625 -21.40625 C -4.28125 -21.945312 -5.0625 -22.34375 -5.96875 -22.59375 L -6.984375 -16.625 L -11.484375 -17.390625 L -9.703125 -27.828125 L 4.421875 -25.421875 L 3.875 -22.21875 L 0.328125 -22.15625 C 1.609375 -20.894531 2.472656 -19.585938 2.921875 -18.234375 C 3.378906 -16.890625 3.457031 -15.332031 3.15625 -13.5625 C 2.757812 -11.25 1.816406 -9.257812 0.328125 -7.59375 C -1.148438 -5.9375 -3.023438 -4.765625 -5.296875 -4.078125 C -7.566406 -3.390625 -10 -3.265625 -12.59375 -3.703125 C -16.664062 -4.398438 -19.765625 -6.128906 -21.890625 -8.890625 C -24.015625 -11.660156 -24.757812 -14.914062 -24.125 -18.65625 C -23.582031 -21.820312 -22.34375 -24.285156 -20.40625 -26.046875 C -18.476562 -27.816406 -16.148438 -28.625 -13.421875 -28.46875 Z M -14.28125 -23.4375 "/></g></g></g><g fill="#ffffff" fill-opacity="1"><g transform="translate(45.507387, 150.964274)"><g><path d="M -22.34375 -16.515625 L -1.59375 -9.390625 L 2.515625 -21.375 L 6.828125 -19.890625 L 0.9375 -2.75 L -24.125 -11.359375 Z M -22.34375 -16.515625 "/></g></g></g><g fill="#ffffff" fill-opacity="1"><g transform="translate(51.932605, 131.161302)"><g><path d="M -3.75 -5.421875 C -6.082031 -5.503906 -8.425781 -6.175781 -10.78125 -7.4375 C -13.144531 -8.707031 -15.003906 -10.296875 -16.359375 -12.203125 C -17.722656 -14.109375 -18.472656 -16.195312 -18.609375 -18.46875 C -18.742188 -20.75 -18.210938 -23.003906 -17.015625 -25.234375 C -15.203125 -28.609375 -12.597656 -30.71875 -9.203125 -31.5625 C -5.816406 -32.40625 -2.269531 -31.832031 1.4375 -29.84375 C 3.101562 -28.9375 4.523438 -27.828125 5.703125 -26.515625 C 6.890625 -25.210938 7.773438 -23.796875 8.359375 -22.265625 C 8.941406 -20.734375 9.164062 -19.085938 9.03125 -17.328125 C 8.894531 -15.566406 8.367188 -13.828125 7.453125 -12.109375 C 6.242188 -9.867188 4.65625 -8.175781 2.6875 -7.03125 C 0.71875 -5.882812 -1.425781 -5.347656 -3.75 -5.421875 Z M -12.90625 -23.046875 C -13.945312 -21.117188 -14.039062 -19.164062 -13.1875 -17.1875 C -12.332031 -15.21875 -10.675781 -13.570312 -8.21875 -12.25 C -5.769531 -10.9375 -3.488281 -10.46875 -1.375 -10.84375 C 0.726562 -11.226562 2.300781 -12.382812 3.34375 -14.3125 C 4.375 -16.226562 4.472656 -18.175781 3.640625 -20.15625 C 2.804688 -22.144531 1.207031 -23.773438 -1.15625 -25.046875 C -3.695312 -26.410156 -6.023438 -26.910156 -8.140625 -26.546875 C -10.253906 -26.191406 -11.84375 -25.023438 -12.90625 -23.046875 Z M -12.90625 -23.046875 "/></g></g></g><g fill="#ffffff" fill-opacity="1"><g transform="translate(64.546503, 107.594396)"><g><path d="M 9 -23.71875 C 9.539062 -23.289062 10.019531 -22.8125 10.4375 -22.28125 C 10.851562 -21.75 11.195312 -21.097656 11.46875 -20.328125 C 11.738281 -19.554688 11.867188 -18.742188 11.859375 -17.890625 C 11.859375 -17.046875 11.640625 -16.082031 11.203125 -15 C 10.765625 -13.914062 10.101562 -12.8125 9.21875 -11.6875 L 1.84375 -2.34375 L -18.96875 -18.75 L -11.65625 -28.015625 C -10.832031 -29.046875 -9.960938 -29.867188 -9.046875 -30.484375 C -8.128906 -31.109375 -7.285156 -31.507812 -6.515625 -31.6875 C -5.742188 -31.863281 -4.972656 -31.914062 -4.203125 -31.84375 C -3.441406 -31.769531 -2.785156 -31.609375 -2.234375 -31.359375 C -1.691406 -31.117188 -1.210938 -30.828125 -0.796875 -30.484375 C 0.0859375 -29.796875 0.6875 -28.972656 1 -28.015625 C 1.3125 -27.054688 1.390625 -25.804688 1.234375 -24.265625 C 4.398438 -25.492188 6.988281 -25.3125 9 -23.71875 Z M -12 -20.203125 L -7.296875 -16.5 L -3.640625 -21.125 C -2.859375 -22.125 -2.46875 -23.039062 -2.46875 -23.875 C -2.46875 -24.707031 -2.847656 -25.421875 -3.609375 -26.015625 C -4.367188 -26.617188 -5.148438 -26.820312 -5.953125 -26.625 C -6.765625 -26.425781 -7.5625 -25.828125 -8.34375 -24.828125 Z M -3.734375 -13.6875 L 1.640625 -9.453125 L 5.65625 -14.546875 C 6.476562 -15.585938 6.875 -16.550781 6.84375 -17.4375 C 6.820312 -18.332031 6.375 -19.125 5.5 -19.8125 C 4.625 -20.507812 3.738281 -20.769531 2.84375 -20.59375 C 1.957031 -20.425781 1.101562 -19.820312 0.28125 -18.78125 Z M -3.734375 -13.6875 "/></g></g></g><g fill="#ffffff" fill-opacity="1"><g transform="translate(79.787827, 88.073581)"><g><path d="M 9.9375 -16.15625 L 2.5625 -9.5 L 4.828125 -4.359375 L 0.703125 -0.640625 L -10.0625 -26.625 L -5.609375 -30.640625 L 18.953125 -17.109375 L 14.8125 -13.375 Z M 5.78125 -18.546875 L -3.71875 -23.9375 L 0.65625 -13.921875 Z M 5.78125 -18.546875 "/></g></g></g><g fill="#ffffff" fill-opacity="1"><g transform="translate(98.290298, 71.434416)"><g><path d="M -7.5 -26.765625 L 4.5 -8.390625 L 15.109375 -15.328125 L 17.609375 -11.515625 L 2.4375 -1.59375 L -12.0625 -23.78125 Z M -7.5 -26.765625 "/></g></g></g><g fill="#ffffff" fill-opacity="1"><g transform="translate(116.340696, 59.963278)"><g/></g></g><g fill="#ffffff" fill-opacity="1"><g transform="translate(124.092034, 55.16992)"><g><path d="M 0.421875 -22.046875 L 7.390625 -2.640625 L 2.265625 -0.8125 L -6.6875 -25.75 L 0.953125 -28.5 L 12.609375 -10.296875 L 9.859375 -31.6875 L 17.578125 -34.453125 L 26.53125 -9.515625 L 21.421875 -7.6875 L 14.453125 -27.09375 L 17 -6.09375 L 11.859375 -4.25 Z M 0.421875 -22.046875 "/></g></g></g><g fill="#ffffff" fill-opacity="1"><g transform="translate(150.974491, 45.462403)"><g><path d="M 2.046875 -6.28125 C 0.703125 -8.1875 -0.175781 -10.460938 -0.59375 -13.109375 C -1.007812 -15.753906 -0.867188 -18.191406 -0.171875 -20.421875 C 0.515625 -22.660156 1.722656 -24.519531 3.453125 -26 C 5.179688 -27.476562 7.296875 -28.414062 9.796875 -28.8125 C 13.578125 -29.40625 16.828125 -28.609375 19.546875 -26.421875 C 22.273438 -24.242188 23.96875 -21.078125 24.625 -16.921875 C 24.925781 -15.046875 24.910156 -13.238281 24.578125 -11.5 C 24.253906 -9.769531 23.65625 -8.207031 22.78125 -6.8125 C 21.914062 -5.414062 20.738281 -4.238281 19.25 -3.28125 C 17.769531 -2.332031 16.066406 -1.707031 14.140625 -1.40625 C 11.628906 -1.007812 9.320312 -1.25 7.21875 -2.125 C 5.125 -3 3.398438 -4.382812 2.046875 -6.28125 Z M 10.53125 -24.21875 C 8.363281 -23.875 6.753906 -22.765625 5.703125 -20.890625 C 4.660156 -19.015625 4.359375 -16.703125 4.796875 -13.953125 C 5.222656 -11.210938 6.222656 -9.113281 7.796875 -7.65625 C 9.378906 -6.207031 11.253906 -5.65625 13.421875 -6 C 15.566406 -6.332031 17.175781 -7.429688 18.25 -9.296875 C 19.332031 -11.160156 19.660156 -13.421875 19.234375 -16.078125 C 18.785156 -18.921875 17.773438 -21.078125 16.203125 -22.546875 C 14.640625 -24.015625 12.75 -24.570312 10.53125 -24.21875 Z M 10.53125 -24.21875 "/></g></g></g><g fill="#ffffff" fill-opacity="1"><g transform="translate(177.370428, 41.243288)"><g><path d="M 18 -4.234375 C 18.007812 -4.941406 18.023438 -5.5 18.046875 -5.90625 C 18.078125 -6.320312 18.09375 -6.691406 18.09375 -7.015625 C 18.113281 -8.117188 17.863281 -8.925781 17.34375 -9.4375 C 16.820312 -9.957031 15.972656 -10.226562 14.796875 -10.25 L 8.546875 -10.359375 L 8.359375 0.15625 L 2.90625 0.046875 L 3.375 -26.453125 L 17.5625 -26.1875 C 18.65625 -26.164062 19.628906 -25.992188 20.484375 -25.671875 C 21.335938 -25.359375 22.015625 -24.945312 22.515625 -24.4375 C 23.023438 -23.9375 23.441406 -23.359375 23.765625 -22.703125 C 24.085938 -22.046875 24.300781 -21.40625 24.40625 -20.78125 C 24.519531 -20.164062 24.570312 -19.535156 24.5625 -18.890625 C 24.507812 -15.679688 22.988281 -13.53125 20 -12.4375 C 20.46875 -12.207031 20.835938 -12.03125 21.109375 -11.90625 C 21.378906 -11.789062 21.660156 -11.613281 21.953125 -11.375 C 22.242188 -11.144531 22.453125 -10.945312 22.578125 -10.78125 C 22.710938 -10.625 22.851562 -10.34375 23 -9.9375 C 23.144531 -9.539062 23.238281 -9.179688 23.28125 -8.859375 C 23.320312 -8.535156 23.367188 -8.023438 23.421875 -7.328125 C 23.472656 -6.628906 23.5 -5.96875 23.5 -5.34375 C 23.5 -4.71875 23.503906 -3.847656 23.515625 -2.734375 C 23.503906 -2.148438 23.578125 -1.695312 23.734375 -1.375 C 23.898438 -1.050781 24.195312 -0.769531 24.625 -0.53125 L 24.609375 0.4375 L 18.75 0.34375 C 18.425781 -0.28125 18.210938 -0.882812 18.109375 -1.46875 C 18.015625 -2.0625 17.976562 -2.984375 18 -4.234375 Z M 19.125 -18.203125 C 19.144531 -18.921875 19.066406 -19.515625 18.890625 -19.984375 C 18.722656 -20.453125 18.453125 -20.800781 18.078125 -21.03125 C 17.710938 -21.269531 17.320312 -21.429688 16.90625 -21.515625 C 16.488281 -21.609375 15.957031 -21.660156 15.3125 -21.671875 L 8.75 -21.78125 L 8.625 -14.875 L 15.1875 -14.765625 C 15.8125 -14.753906 16.335938 -14.785156 16.765625 -14.859375 C 17.203125 -14.929688 17.601562 -15.082031 17.96875 -15.3125 C 18.34375 -15.539062 18.625 -15.894531 18.8125 -16.375 C 19.007812 -16.851562 19.113281 -17.460938 19.125 -18.203125 Z M 19.125 -18.203125 "/></g></g></g><g fill="#ffffff" fill-opacity="1"><g transform="translate(202.249477, 41.743105)"><g><path d="M 17.578125 -19.1875 L 13.796875 2.421875 L 8.390625 1.46875 L 12.171875 -20.140625 L 4.28125 -21.515625 L 5.078125 -26.015625 L 25.96875 -22.359375 L 25.171875 -17.859375 Z M 17.578125 -19.1875 "/></g></g></g><g fill="#ffffff" fill-opacity="1"><g transform="translate(222.853684, 45.092004)"><g><path d="M 18.9375 0.84375 L 9.5625 -2.375 L 6.15625 2.09375 L 0.90625 0.3125 L 18.375 -21.71875 L 24.0625 -19.78125 L 24.15625 8.25 L 18.875 6.453125 Z M 19.03125 -3.953125 L 19.109375 -14.859375 L 12.484375 -6.1875 Z M 19.03125 -3.953125 "/></g></g></g><g fill="#ffffff" fill-opacity="1"><g transform="translate(246.38489, 53.184969)"><g><path d="M 19.734375 -19.5625 L 9.515625 -0.140625 L 20.734375 5.765625 L 18.609375 9.796875 L 2.578125 1.359375 L 14.921875 -22.09375 Z M 19.734375 -19.5625 "/></g></g></g><g fill="#ffffff" fill-opacity="1"><g transform="translate(265.1795, 63.391373)"><g><path d="M 21.171875 -17.71875 L 6.4375 4.3125 L 1.890625 1.265625 L 16.625 -20.765625 Z M 21.171875 -17.71875 "/></g></g></g><g fill="#ffffff" fill-opacity="1"><g transform="translate(273.135618, 68.283331)"><g><path d="M 24.796875 -7.90625 L 10.765625 8.953125 L 6.546875 5.453125 L 20.578125 -11.40625 L 14.421875 -16.546875 L 17.34375 -20.0625 L 33.65625 -6.484375 L 30.734375 -2.96875 Z M 24.796875 -7.90625 "/></g></g></g><g fill="#ffffff" fill-opacity="1"><g transform="translate(289.335288, 81.540507)"><g><path d="M 17.453125 4.828125 L 10.125 11.359375 L 6.5 7.296875 L 13.828125 0.765625 L 20.421875 -16.90625 L 24.46875 -12.359375 L 19.3125 -0.53125 L 31.4375 -4.546875 L 35.484375 0 Z M 17.453125 4.828125 "/></g></g></g><g fill="#ffffff" fill-opacity="1"><g transform="translate(304.608826, 99.201734)"><g/></g></g><g fill="#ffffff" fill-opacity="1"><g transform="translate(310.359647, 106.410837)"><g><path d="M 19.359375 10.40625 L 14.328125 1.1875 L 3.78125 6.9375 L 1.1875 2.171875 L 24.453125 -10.515625 L 27.046875 -5.75 L 18.328125 -0.984375 L 23.34375 8.21875 L 32.0625 3.453125 L 34.703125 8.265625 L 11.4375 20.953125 L 8.8125 16.15625 Z M 19.359375 10.40625 "/></g></g></g><g fill="#ffffff" fill-opacity="1"><g transform="translate(322.323965, 128.095301)"><g><path d="M 3.53125 12.828125 C 3.21875 11.910156 2.988281 10.988281 2.84375 10.0625 C 2.695312 9.144531 2.675781 8.164062 2.78125 7.125 C 2.894531 6.082031 3.15625 5.125 3.5625 4.25 C 3.976562 3.375 4.644531 2.535156 5.5625 1.734375 C 6.476562 0.929688 7.609375 0.300781 8.953125 -0.15625 L 25.96875 -6 L 27.734375 -0.84375 L 10.71875 5 C 9.207031 5.519531 8.226562 6.296875 7.78125 7.328125 C 7.332031 8.359375 7.382812 9.6875 7.9375 11.3125 C 8.488281 12.914062 9.265625 13.984375 10.265625 14.515625 C 11.265625 15.046875 12.507812 15.054688 14 14.546875 L 31.015625 8.703125 L 32.78125 13.859375 L 15.765625 19.703125 C 14.421875 20.160156 13.144531 20.359375 11.9375 20.296875 C 10.726562 20.242188 9.691406 19.992188 8.828125 19.546875 C 7.960938 19.109375 7.164062 18.507812 6.4375 17.75 C 5.707031 16.988281 5.117188 16.203125 4.671875 15.390625 C 4.222656 14.585938 3.84375 13.734375 3.53125 12.828125 Z M 3.53125 12.828125 "/></g></g></g><g fill="#ffffff" fill-opacity="1"><g transform="translate(330.485631, 151.47792)"><g><path d="M 11.453125 22.65625 C 10.765625 22.769531 10.082031 22.796875 9.40625 22.734375 C 8.738281 22.679688 8.023438 22.492188 7.265625 22.171875 C 6.515625 21.859375 5.828125 21.410156 5.203125 20.828125 C 4.578125 20.253906 4.007812 19.441406 3.5 18.390625 C 3 17.335938 2.632812 16.101562 2.40625 14.6875 L 0.484375 2.9375 L 26.640625 -1.34375 L 28.546875 10.3125 C 28.765625 11.613281 28.785156 12.804688 28.609375 13.890625 C 28.441406 14.984375 28.164062 15.875 27.78125 16.5625 C 27.40625 17.257812 26.925781 17.863281 26.34375 18.375 C 25.757812 18.894531 25.195312 19.269531 24.65625 19.5 C 24.125 19.726562 23.59375 19.890625 23.0625 19.984375 C 21.945312 20.160156 20.929688 20.039062 20.015625 19.625 C 19.097656 19.21875 18.113281 18.4375 17.0625 17.28125 C 15.84375 20.445312 13.972656 22.238281 11.453125 22.65625 Z M 23 4.78125 L 17.09375 5.75 L 18.046875 11.5625 C 18.253906 12.8125 18.664062 13.71875 19.28125 14.28125 C 19.894531 14.851562 20.679688 15.0625 21.640625 14.90625 C 22.597656 14.75 23.273438 14.300781 23.671875 13.5625 C 24.066406 12.832031 24.160156 11.84375 23.953125 10.59375 Z M 12.609375 6.484375 L 5.859375 7.59375 L 6.921875 13.984375 C 7.128906 15.296875 7.570312 16.242188 8.25 16.828125 C 8.925781 17.410156 9.8125 17.613281 10.90625 17.4375 C 12.019531 17.25 12.8125 16.769531 13.28125 16 C 13.75 15.226562 13.878906 14.1875 13.671875 12.875 Z M 12.609375 6.484375 "/></g></g></g><g fill="#ffffff" fill-opacity="1"><g transform="translate(49.330035, 274.614835)"><g><path d="M 13.890625 10.28125 C 12.535156 11.28125 11.09375 11.523438 9.5625 11.015625 C 8.03125 10.503906 6.550781 9.285156 5.125 7.359375 C 2.46875 3.773438 2.175781 0.773438 4.25 -1.640625 L 6.078125 0 C 5.347656 0.875 5.046875 1.828125 5.171875 2.859375 C 5.296875 3.890625 5.816406 5.03125 6.734375 6.28125 C 7.679688 7.5625 8.640625 8.390625 9.609375 8.765625 C 10.578125 9.140625 11.488281 9.007812 12.34375 8.375 C 12.832031 8.019531 13.140625 7.617188 13.265625 7.171875 C 13.398438 6.734375 13.414062 6.242188 13.3125 5.703125 C 13.207031 5.160156 13.015625 4.566406 12.734375 3.921875 C 12.460938 3.273438 12.164062 2.554688 11.84375 1.765625 C 11.226562 0.421875 10.828125 -0.644531 10.640625 -1.4375 C 10.453125 -2.238281 10.382812 -2.929688 10.4375 -3.515625 C 10.5 -4.097656 10.675781 -4.632812 10.96875 -5.125 C 11.257812 -5.625 11.679688 -6.082031 12.234375 -6.5 C 13.484375 -7.425781 14.804688 -7.65625 16.203125 -7.1875 C 17.597656 -6.726562 18.960938 -5.601562 20.296875 -3.8125 C 21.535156 -2.144531 22.222656 -0.679688 22.359375 0.578125 C 22.503906 1.847656 22.09375 3.109375 21.125 4.359375 L 19.328125 2.671875 C 19.941406 1.867188 20.203125 1.035156 20.109375 0.171875 C 20.015625 -0.691406 19.566406 -1.660156 18.765625 -2.734375 C 17.898438 -3.910156 17.039062 -4.660156 16.1875 -4.984375 C 15.34375 -5.304688 14.535156 -5.179688 13.765625 -4.609375 C 13.316406 -4.273438 13.03125 -3.878906 12.90625 -3.421875 C 12.789062 -2.972656 12.796875 -2.445312 12.921875 -1.84375 C 13.046875 -1.238281 13.460938 -0.144531 14.171875 1.4375 C 14.410156 1.96875 14.640625 2.492188 14.859375 3.015625 C 15.078125 3.546875 15.265625 4.070312 15.421875 4.59375 C 15.578125 5.113281 15.6875 5.625 15.75 6.125 C 15.8125 6.632812 15.796875 7.128906 15.703125 7.609375 C 15.609375 8.097656 15.414062 8.566406 15.125 9.015625 C 14.84375 9.460938 14.429688 9.882812 13.890625 10.28125 Z M 13.890625 10.28125 "/></g></g></g><g fill="#ffffff" fill-opacity="1"><g transform="translate(60.468934, 289.503243)"><g><path d="M 18.296875 -4.171875 L 6.34375 6.875 L 4.671875 5.0625 L 16.625 -5.984375 L 12.359375 -10.609375 L 13.859375 -11.984375 L 24.0625 -0.9375 L 22.5625 0.4375 Z M 18.296875 -4.171875 "/></g></g></g><g fill="#ffffff" fill-opacity="1"><g transform="translate(72.077807, 302.061434)"><g><path d="M 11.421875 9.96875 L 13.375 4.5625 L 7.078125 -0.921875 L 1.984375 1.71875 L 0.03125 0.03125 L 17.6875 -8.859375 L 19.828125 -7 L 13.34375 11.640625 Z M 17.515625 -6.53125 L 17.1875 -6.34375 C 16.550781 -5.9375 15.707031 -5.453125 14.65625 -4.890625 L 8.921875 -1.875 L 14.078125 2.625 L 16.296875 -3.484375 C 16.492188 -4.109375 16.75 -4.78125 17.0625 -5.5 Z M 17.515625 -6.53125 "/></g></g></g><g fill="#ffffff" fill-opacity="1"><g transform="translate(86.144876, 314.220329)"><g><path d="M 16.984375 -7.984375 L 7.671875 5.359375 L 5.65625 3.9375 L 14.96875 -9.40625 L 9.796875 -13 L 10.96875 -14.671875 L 23.3125 -6.0625 L 22.140625 -4.390625 Z M 16.984375 -7.984375 "/></g></g></g><g fill="#ffffff" fill-opacity="1"><g transform="translate(100.053836, 323.697293)"><g><path d="M 2.109375 1.25 L 11.4375 -14.515625 L 13.578125 -13.25 L 4.25 2.515625 Z M 2.109375 1.25 "/></g></g></g><g fill="#ffffff" fill-opacity="1"><g transform="translate(106.86528, 327.941159)"><g><path d="M 17.0625 2.734375 C 16.320312 4.242188 15.15625 5.125 13.5625 5.375 C 11.96875 5.625 10.097656 5.222656 7.953125 4.171875 C 3.941406 2.210938 2.289062 -0.3125 3 -3.40625 L 5.390625 -2.796875 C 5.148438 -1.679688 5.320312 -0.695312 5.90625 0.15625 C 6.488281 1.019531 7.476562 1.796875 8.875 2.484375 C 10.3125 3.179688 11.539062 3.472656 12.5625 3.359375 C 13.59375 3.253906 14.335938 2.722656 14.796875 1.765625 C 15.066406 1.222656 15.160156 0.722656 15.078125 0.265625 C 14.992188 -0.191406 14.78125 -0.632812 14.4375 -1.0625 C 14.101562 -1.5 13.664062 -1.941406 13.125 -2.390625 C 12.582031 -2.835938 11.984375 -3.332031 11.328125 -3.875 C 10.160156 -4.789062 9.3125 -5.554688 8.78125 -6.171875 C 8.25 -6.796875 7.875 -7.378906 7.65625 -7.921875 C 7.4375 -8.460938 7.34375 -9.019531 7.375 -9.59375 C 7.40625 -10.175781 7.570312 -10.773438 7.875 -11.390625 C 8.5625 -12.796875 9.628906 -13.613281 11.078125 -13.84375 C 12.523438 -14.082031 14.25 -13.710938 16.25 -12.734375 C 18.125 -11.816406 19.414062 -10.832031 20.125 -9.78125 C 20.84375 -8.726562 21.054688 -7.421875 20.765625 -5.859375 L 18.390625 -6.515625 C 18.578125 -7.515625 18.425781 -8.375 17.9375 -9.09375 C 17.445312 -9.8125 16.601562 -10.460938 15.40625 -11.046875 C 14.09375 -11.691406 12.984375 -11.96875 12.078125 -11.875 C 11.179688 -11.78125 10.519531 -11.300781 10.09375 -10.4375 C 9.851562 -9.9375 9.78125 -9.453125 9.875 -8.984375 C 9.976562 -8.523438 10.226562 -8.054688 10.625 -7.578125 C 11.019531 -7.097656 11.894531 -6.320312 13.25 -5.25 C 13.695312 -4.894531 14.140625 -4.53125 14.578125 -4.15625 C 15.015625 -3.789062 15.421875 -3.410156 15.796875 -3.015625 C 16.179688 -2.628906 16.519531 -2.222656 16.8125 -1.796875 C 17.101562 -1.378906 17.316406 -0.929688 17.453125 -0.453125 C 17.585938 0.015625 17.628906 0.507812 17.578125 1.03125 C 17.523438 1.5625 17.351562 2.128906 17.0625 2.734375 Z M 17.0625 2.734375 "/></g></g></g><g fill="#ffffff" fill-opacity="1"><g transform="translate(123.60613, 336.031042)"><g><path d="M 14.328125 -12.125 L 8.796875 3.1875 L 6.484375 2.34375 L 12.015625 -12.96875 L 6.09375 -15.109375 L 6.78125 -17.015625 L 20.921875 -11.90625 L 20.234375 -10 Z M 14.328125 -12.125 "/></g></g></g><g fill="#ffffff" fill-opacity="1"><g transform="translate(139.498478, 341.574265)"><g><path d="M 2.359375 0.65625 L 7.28125 -16.984375 L 9.671875 -16.3125 L 4.75 1.328125 Z M 2.359375 0.65625 "/></g></g></g><g fill="#ffffff" fill-opacity="1"><g transform="translate(147.20518, 343.953787)"><g><path d="M 13.1875 -14.328125 C 11.195312 -14.710938 9.53125 -14.367188 8.1875 -13.296875 C 6.84375 -12.234375 5.957031 -10.585938 5.53125 -8.359375 C 5.113281 -6.148438 5.351562 -4.265625 6.25 -2.703125 C 7.144531 -1.148438 8.570312 -0.1875 10.53125 0.1875 C 13.050781 0.664062 15.1875 -0.222656 16.9375 -2.484375 L 18.75 -1.109375 C 17.707031 0.304688 16.4375 1.289062 14.9375 1.84375 C 13.445312 2.40625 11.816406 2.519531 10.046875 2.1875 C 8.242188 1.84375 6.75 1.160156 5.5625 0.140625 C 4.375 -0.867188 3.5625 -2.132812 3.125 -3.65625 C 2.695312 -5.1875 2.664062 -6.910156 3.03125 -8.828125 C 3.570312 -11.691406 4.773438 -13.789062 6.640625 -15.125 C 8.503906 -16.457031 10.804688 -16.863281 13.546875 -16.34375 C 15.460938 -15.976562 16.988281 -15.300781 18.125 -14.3125 C 19.269531 -13.320312 20.007812 -12.03125 20.34375 -10.4375 L 17.875 -10.109375 C 17.65625 -11.234375 17.132812 -12.15625 16.3125 -12.875 C 15.488281 -13.601562 14.445312 -14.085938 13.1875 -14.328125 Z M 13.1875 -14.328125 "/></g></g></g><g fill="#ffffff" fill-opacity="1"><g transform="translate(167.007572, 347.610987)"><g><path d="M 16.84375 -3.875 C 16.71875 -2.195312 15.960938 -0.941406 14.578125 -0.109375 C 13.203125 0.722656 11.320312 1.054688 8.9375 0.890625 C 4.488281 0.578125 2.015625 -1.148438 1.515625 -4.296875 L 3.9375 -4.609375 C 4.132812 -3.484375 4.664062 -2.632812 5.53125 -2.0625 C 6.40625 -1.488281 7.617188 -1.144531 9.171875 -1.03125 C 10.753906 -0.925781 12 -1.113281 12.90625 -1.59375 C 13.820312 -2.082031 14.316406 -2.859375 14.390625 -3.921875 C 14.429688 -4.523438 14.328125 -5.019531 14.078125 -5.40625 C 13.828125 -5.800781 13.460938 -6.132812 12.984375 -6.40625 C 12.503906 -6.6875 11.929688 -6.929688 11.265625 -7.140625 C 10.597656 -7.347656 9.859375 -7.582031 9.046875 -7.84375 C 7.617188 -8.257812 6.539062 -8.648438 5.8125 -9.015625 C 5.082031 -9.390625 4.519531 -9.785156 4.125 -10.203125 C 3.726562 -10.628906 3.429688 -11.113281 3.234375 -11.65625 C 3.046875 -12.207031 2.972656 -12.828125 3.015625 -13.515625 C 3.128906 -15.066406 3.8125 -16.222656 5.0625 -16.984375 C 6.320312 -17.753906 8.066406 -18.0625 10.296875 -17.90625 C 12.367188 -17.75 13.929688 -17.316406 14.984375 -16.609375 C 16.046875 -15.898438 16.738281 -14.769531 17.0625 -13.21875 L 14.609375 -12.953125 C 14.398438 -13.941406 13.929688 -14.675781 13.203125 -15.15625 C 12.484375 -15.644531 11.460938 -15.9375 10.140625 -16.03125 C 8.679688 -16.125 7.546875 -15.957031 6.734375 -15.53125 C 5.929688 -15.113281 5.5 -14.425781 5.4375 -13.46875 C 5.394531 -12.90625 5.507812 -12.425781 5.78125 -12.03125 C 6.050781 -11.644531 6.457031 -11.300781 7 -11 C 7.550781 -10.707031 8.648438 -10.316406 10.296875 -9.828125 C 10.847656 -9.660156 11.398438 -9.488281 11.953125 -9.3125 C 12.503906 -9.144531 13.023438 -8.953125 13.515625 -8.734375 C 14.015625 -8.515625 14.476562 -8.265625 14.90625 -7.984375 C 15.34375 -7.703125 15.707031 -7.363281 16 -6.96875 C 16.300781 -6.582031 16.523438 -6.132812 16.671875 -5.625 C 16.828125 -5.125 16.882812 -4.539062 16.84375 -3.875 Z M 16.84375 -3.875 "/></g></g></g><g fill="#ffffff" fill-opacity="1"><g transform="translate(185.338708, 348.669128)"><g/></g></g><g fill="#ffffff" fill-opacity="1"><g transform="translate(193.323019, 348.737217)"><g><path d="M 3.28125 -16.609375 L 3.859375 -9.828125 L 14.03125 -10.6875 L 14.203125 -8.640625 L 4.03125 -7.78125 L 4.65625 -0.390625 L 2.1875 -0.1875 L 0.640625 -18.4375 L 13.59375 -19.53125 L 13.765625 -17.5 Z M 3.28125 -16.609375 "/></g></g></g><g fill="#ffffff" fill-opacity="1"><g transform="translate(210.408138, 347.323379)"><g><path d="M 14.828125 -2.953125 L 8.6875 -9.484375 L 3.09375 -8.375 L 4.578125 -0.921875 L 2.140625 -0.421875 L -1.4375 -18.375 L 7.015625 -20.0625 C 9.035156 -20.46875 10.679688 -20.328125 11.953125 -19.640625 C 13.234375 -18.960938 14.035156 -17.816406 14.359375 -16.203125 C 14.628906 -14.859375 14.46875 -13.65625 13.875 -12.59375 C 13.28125 -11.53125 12.316406 -10.742188 10.984375 -10.234375 L 17.640625 -3.515625 Z M 11.9375 -15.6875 C 11.726562 -16.726562 11.210938 -17.453125 10.390625 -17.859375 C 9.566406 -18.265625 8.488281 -18.332031 7.15625 -18.0625 L 1.390625 -16.921875 L 2.703125 -10.296875 L 8.578125 -11.453125 C 9.847656 -11.710938 10.773438 -12.210938 11.359375 -12.953125 C 11.953125 -13.691406 12.144531 -14.601562 11.9375 -15.6875 Z M 11.9375 -15.6875 "/></g></g></g><g fill="#ffffff" fill-opacity="1"><g transform="translate(230.233647, 343.349295)"><g><path d="M 15.46875 -14.921875 C 16.082031 -13.109375 16.269531 -11.40625 16.03125 -9.8125 C 15.800781 -8.21875 15.15625 -6.835938 14.09375 -5.671875 C 13.039062 -4.503906 11.632812 -3.625 9.875 -3.03125 C 8.09375 -2.4375 6.4375 -2.285156 4.90625 -2.578125 C 3.375 -2.867188 2.035156 -3.582031 0.890625 -4.71875 C -0.242188 -5.863281 -1.117188 -7.34375 -1.734375 -9.15625 C -2.660156 -11.9375 -2.628906 -14.359375 -1.640625 -16.421875 C -0.648438 -18.492188 1.203125 -19.988281 3.921875 -20.90625 C 5.679688 -21.5 7.328125 -21.660156 8.859375 -21.390625 C 10.390625 -21.128906 11.71875 -20.441406 12.84375 -19.328125 C 13.976562 -18.222656 14.851562 -16.753906 15.46875 -14.921875 Z M 13.078125 -14.125 C 12.347656 -16.289062 11.234375 -17.804688 9.734375 -18.671875 C 8.242188 -19.535156 6.519531 -19.640625 4.5625 -18.984375 C 2.570312 -18.316406 1.234375 -17.191406 0.546875 -15.609375 C -0.128906 -14.035156 -0.0976562 -12.148438 0.640625 -9.953125 C 1.367188 -7.785156 2.492188 -6.242188 4.015625 -5.328125 C 5.546875 -4.421875 7.285156 -4.289062 9.234375 -4.9375 C 11.234375 -5.613281 12.5625 -6.75 13.21875 -8.34375 C 13.882812 -9.945312 13.835938 -11.875 13.078125 -14.125 Z M 13.078125 -14.125 "/></g></g></g><g fill="#ffffff" fill-opacity="1"><g transform="translate(250.875718, 336.404403)"><g><path d="M 15.90625 -7.875 L 10.484375 -18.828125 C 9.890625 -20.023438 9.347656 -21.203125 8.859375 -22.359375 C 9.179688 -20.773438 9.378906 -19.519531 9.453125 -18.59375 L 10.75 -5.328125 L 9.1875 -4.546875 L -0.640625 -13.59375 L -2.265625 -15.25 L -3.296875 -16.34375 L -2.609375 -15.078125 L -1.484375 -12.90625 L 3.9375 -1.953125 L 1.953125 -0.96875 L -6.171875 -17.375 L -3.25 -18.8125 L 6.765625 -9.609375 C 7.148438 -9.222656 7.539062 -8.800781 7.9375 -8.34375 C 8.34375 -7.894531 8.625 -7.566406 8.78125 -7.359375 C 8.6875 -7.703125 8.582031 -8.238281 8.46875 -8.96875 C 8.351562 -9.707031 8.289062 -10.171875 8.28125 -10.359375 L 6.921875 -23.859375 L 9.78125 -25.265625 L 17.90625 -8.859375 Z M 15.90625 -7.875 "/></g></g></g><g fill="#ffffff" fill-opacity="1"><g transform="translate(271.214609, 325.914707)"><g/></g></g><g fill="#ffffff" fill-opacity="1"><g transform="translate(278.43109, 321.944245)"><g><path d="M 15.546875 -11.96875 L 13.203125 -10.171875 L 3.59375 -17.4375 C 2.988281 -17.894531 1.957031 -18.75 0.5 -20 C 0.925781 -19.050781 1.28125 -18.257812 1.5625 -17.625 C 1.851562 -17 3.566406 -12.847656 6.703125 -5.171875 L 4.375 -3.359375 L -11.078125 -14.5625 L -9.03125 -16.15625 L 0.65625 -8.9375 C 1.863281 -8.03125 3.066406 -7.066406 4.265625 -6.046875 C 3.847656 -6.921875 3.40625 -7.882812 2.9375 -8.9375 C 2.46875 -10 0.773438 -14.171875 -2.140625 -21.453125 L -0.265625 -22.90625 L 9.21875 -15.8125 C 10.738281 -14.644531 12 -13.632812 13 -12.78125 L 12.828125 -13.21875 C 12.398438 -14.132812 12.050781 -14.890625 11.78125 -15.484375 C 11.519531 -16.078125 9.796875 -20.3125 6.609375 -28.1875 L 8.65625 -29.78125 Z M 15.546875 -11.96875 "/></g></g></g><g fill="#ffffff" fill-opacity="1"><g transform="translate(299.025557, 305.716253)"><g><path d="M 10.171875 -10.421875 L 4.109375 -16.34375 L -2.796875 -9.265625 L 3.265625 -3.34375 L 1.53125 -1.5625 L -11.5625 -14.359375 L -9.828125 -16.140625 L -4.296875 -10.71875 L 2.609375 -17.796875 L -2.921875 -23.21875 L -1.1875 -24.984375 L 11.90625 -12.1875 Z M 10.171875 -10.421875 "/></g></g></g><g fill="#ffffff" fill-opacity="1"><g transform="translate(313.144573, 291.242314)"><g><path d="M 4.34375 -21.0625 C 5.863281 -19.90625 6.976562 -18.601562 7.6875 -17.15625 C 8.394531 -15.707031 8.644531 -14.203125 8.4375 -12.640625 C 8.226562 -11.085938 7.566406 -9.566406 6.453125 -8.078125 C 5.316406 -6.585938 4.03125 -5.523438 2.59375 -4.890625 C 1.15625 -4.265625 -0.351562 -4.097656 -1.9375 -4.390625 C -3.519531 -4.691406 -5.070312 -5.421875 -6.59375 -6.578125 C -8.9375 -8.347656 -10.285156 -10.367188 -10.640625 -12.640625 C -10.992188 -14.910156 -10.304688 -17.1875 -8.578125 -19.46875 C -7.453125 -20.957031 -6.179688 -22.019531 -4.765625 -22.65625 C -3.347656 -23.300781 -1.859375 -23.488281 -0.296875 -23.21875 C 1.253906 -22.945312 2.800781 -22.226562 4.34375 -21.0625 Z M 2.828125 -19.03125 C 1.003906 -20.40625 -0.765625 -21.03125 -2.484375 -20.90625 C -4.210938 -20.789062 -5.703125 -19.90625 -6.953125 -18.25 C -8.210938 -16.582031 -8.675781 -14.898438 -8.34375 -13.203125 C -8.019531 -11.515625 -6.929688 -9.972656 -5.078125 -8.578125 C -3.253906 -7.203125 -1.457031 -6.566406 0.3125 -6.671875 C 2.09375 -6.785156 3.601562 -7.660156 4.84375 -9.296875 C 6.113281 -10.984375 6.566406 -12.671875 6.203125 -14.359375 C 5.835938 -16.046875 4.710938 -17.601562 2.828125 -19.03125 Z M 2.828125 -19.03125 "/></g></g></g><g fill="#025699" fill-opacity="1"><g transform="translate(136.470212, 272.090222)"><g><path d="M 1.109375 0 L 1.109375 -11.46875 L 10.140625 -11.46875 L 10.140625 -9.609375 L 3.515625 -9.609375 L 3.515625 -6.734375 L 9.640625 -6.734375 L 9.640625 -4.875 L 3.515625 -4.875 L 3.515625 -1.859375 L 10.46875 -1.859375 L 10.46875 0 Z M 1.109375 0 "/></g></g></g><g fill="#025699" fill-opacity="1"><g transform="translate(149.572266, 272.090222)"><g><path d="M 10.46875 -3.3125 C 10.46875 -2.1875 10.050781 -1.328125 9.21875 -0.734375 C 8.382812 -0.140625 7.160156 0.15625 5.546875 0.15625 C 4.078125 0.15625 2.925781 -0.101562 2.09375 -0.625 C 1.257812 -1.144531 0.722656 -1.929688 0.484375 -2.984375 L 2.796875 -3.375 C 2.953125 -2.757812 3.257812 -2.316406 3.71875 -2.046875 C 4.175781 -1.773438 4.804688 -1.640625 5.609375 -1.640625 C 7.285156 -1.640625 8.125 -2.148438 8.125 -3.171875 C 8.125 -3.492188 8.023438 -3.757812 7.828125 -3.96875 C 7.640625 -4.1875 7.367188 -4.363281 7.015625 -4.5 C 6.671875 -4.644531 6.003906 -4.816406 5.015625 -5.015625 C 4.160156 -5.210938 3.5625 -5.375 3.21875 -5.5 C 2.882812 -5.625 2.582031 -5.765625 2.3125 -5.921875 C 2.039062 -6.085938 1.804688 -6.285156 1.609375 -6.515625 C 1.421875 -6.753906 1.273438 -7.03125 1.171875 -7.34375 C 1.066406 -7.664062 1.015625 -8.03125 1.015625 -8.4375 C 1.015625 -9.46875 1.40625 -10.257812 2.1875 -10.8125 C 2.96875 -11.363281 4.097656 -11.640625 5.578125 -11.640625 C 7.003906 -11.640625 8.070312 -11.414062 8.78125 -10.96875 C 9.5 -10.53125 9.960938 -9.796875 10.171875 -8.765625 L 7.84375 -8.453125 C 7.71875 -8.941406 7.472656 -9.3125 7.109375 -9.5625 C 6.742188 -9.8125 6.21875 -9.9375 5.53125 -9.9375 C 4.082031 -9.9375 3.359375 -9.484375 3.359375 -8.578125 C 3.359375 -8.273438 3.429688 -8.023438 3.578125 -7.828125 C 3.734375 -7.640625 3.960938 -7.476562 4.265625 -7.34375 C 4.578125 -7.21875 5.195312 -7.054688 6.125 -6.859375 C 7.226562 -6.617188 8.015625 -6.398438 8.484375 -6.203125 C 8.960938 -6.003906 9.335938 -5.773438 9.609375 -5.515625 C 9.890625 -5.253906 10.101562 -4.9375 10.25 -4.5625 C 10.394531 -4.195312 10.46875 -3.78125 10.46875 -3.3125 Z M 10.46875 -3.3125 "/></g></g></g><g fill="#025699" fill-opacity="1"><g transform="translate(162.674321, 272.090222)"><g><path d="M 6.296875 -9.609375 L 6.296875 0 L 3.890625 0 L 3.890625 -9.609375 L 0.1875 -9.609375 L 0.1875 -11.46875 L 10 -11.46875 L 10 -9.609375 Z M 6.296875 -9.609375 "/></g></g></g><g fill="#025699" fill-opacity="1"><g transform="translate(174.84043, 272.090222)"><g><path d="M 11.34375 -5.828125 C 11.34375 -4.640625 11.109375 -3.601562 10.640625 -2.71875 C 10.179688 -1.84375 9.523438 -1.171875 8.671875 -0.703125 C 7.828125 -0.234375 6.851562 0 5.75 0 L 1.109375 0 L 1.109375 -11.46875 L 5.265625 -11.46875 C 7.203125 -11.46875 8.695312 -10.976562 9.75 -10 C 10.8125 -9.03125 11.34375 -7.640625 11.34375 -5.828125 Z M 8.921875 -5.828125 C 8.921875 -7.054688 8.597656 -7.992188 7.953125 -8.640625 C 7.316406 -9.285156 6.40625 -9.609375 5.21875 -9.609375 L 3.515625 -9.609375 L 3.515625 -1.859375 L 5.546875 -1.859375 C 6.578125 -1.859375 7.394531 -2.210938 8 -2.921875 C 8.613281 -3.628906 8.921875 -4.597656 8.921875 -5.828125 Z M 8.921875 -5.828125 "/></g></g></g><g fill="#025699" fill-opacity="1"><g transform="translate(188.862167, 272.090222)"><g><path d="M 1.125 0 L 1.125 -2.484375 L 3.484375 -2.484375 L 3.484375 0 Z M 1.125 0 "/></g></g></g><g fill="#025699" fill-opacity="1"><g transform="translate(195.477674, 272.090222)"><g><path d="M 0.578125 0 L 0.578125 -1.59375 C 0.878906 -2.25 1.300781 -2.882812 1.84375 -3.5 C 2.394531 -4.125 3.09375 -4.78125 3.9375 -5.46875 C 4.738281 -6.113281 5.300781 -6.644531 5.625 -7.0625 C 5.945312 -7.488281 6.109375 -7.90625 6.109375 -8.3125 C 6.109375 -9.3125 5.601562 -9.8125 4.59375 -9.8125 C 4.101562 -9.8125 3.726562 -9.679688 3.46875 -9.421875 C 3.21875 -9.160156 3.054688 -8.765625 2.984375 -8.234375 L 0.671875 -8.375 C 0.804688 -9.4375 1.203125 -10.242188 1.859375 -10.796875 C 2.523438 -11.359375 3.429688 -11.640625 4.578125 -11.640625 C 5.816406 -11.640625 6.765625 -11.359375 7.421875 -10.796875 C 8.085938 -10.234375 8.421875 -9.441406 8.421875 -8.421875 C 8.421875 -7.878906 8.316406 -7.390625 8.109375 -6.953125 C 7.898438 -6.523438 7.628906 -6.125 7.296875 -5.75 C 6.960938 -5.382812 6.59375 -5.039062 6.1875 -4.71875 C 5.78125 -4.40625 5.382812 -4.097656 5 -3.796875 C 4.625 -3.492188 4.28125 -3.1875 3.96875 -2.875 C 3.664062 -2.5625 3.4375 -2.226562 3.28125 -1.875 L 8.609375 -1.875 L 8.609375 0 Z M 0.578125 0 "/></g></g></g><g fill="#025699" fill-opacity="1"><g transform="translate(206.732244, 272.090222)"><g><path d="M 8.59375 -5.734375 C 8.59375 -3.796875 8.257812 -2.328125 7.59375 -1.328125 C 6.925781 -0.335938 5.925781 0.15625 4.59375 0.15625 C 1.96875 0.15625 0.65625 -1.804688 0.65625 -5.734375 C 0.65625 -7.109375 0.796875 -8.226562 1.078125 -9.09375 C 1.367188 -9.96875 1.800781 -10.609375 2.375 -11.015625 C 2.957031 -11.429688 3.722656 -11.640625 4.671875 -11.640625 C 6.023438 -11.640625 7.015625 -11.144531 7.640625 -10.15625 C 8.273438 -9.175781 8.59375 -7.703125 8.59375 -5.734375 Z M 6.296875 -5.734375 C 6.296875 -6.796875 6.242188 -7.617188 6.140625 -8.203125 C 6.035156 -8.785156 5.867188 -9.203125 5.640625 -9.453125 C 5.410156 -9.710938 5.078125 -9.84375 4.640625 -9.84375 C 4.179688 -9.84375 3.832031 -9.710938 3.59375 -9.453125 C 3.363281 -9.203125 3.195312 -8.785156 3.09375 -8.203125 C 3 -7.617188 2.953125 -6.796875 2.953125 -5.734375 C 2.953125 -4.691406 3.003906 -3.875 3.109375 -3.28125 C 3.210938 -2.695312 3.378906 -2.273438 3.609375 -2.015625 C 3.835938 -1.765625 4.171875 -1.640625 4.609375 -1.640625 C 5.046875 -1.640625 5.378906 -1.769531 5.609375 -2.03125 C 5.847656 -2.300781 6.019531 -2.734375 6.125 -3.328125 C 6.238281 -3.921875 6.296875 -4.722656 6.296875 -5.734375 Z M 6.296875 -5.734375 "/></g></g></g><g fill="#025699" fill-opacity="1"><g transform="translate(217.986815, 272.090222)"><g><path d="M 0.578125 0 L 0.578125 -1.59375 C 0.878906 -2.25 1.300781 -2.882812 1.84375 -3.5 C 2.394531 -4.125 3.09375 -4.78125 3.9375 -5.46875 C 4.738281 -6.113281 5.300781 -6.644531 5.625 -7.0625 C 5.945312 -7.488281 6.109375 -7.90625 6.109375 -8.3125 C 6.109375 -9.3125 5.601562 -9.8125 4.59375 -9.8125 C 4.101562 -9.8125 3.726562 -9.679688 3.46875 -9.421875 C 3.21875 -9.160156 3.054688 -8.765625 2.984375 -8.234375 L 0.671875 -8.375 C 0.804688 -9.4375 1.203125 -10.242188 1.859375 -10.796875 C 2.523438 -11.359375 3.429688 -11.640625 4.578125 -11.640625 C 5.816406 -11.640625 6.765625 -11.359375 7.421875 -10.796875 C 8.085938 -10.234375 8.421875 -9.441406 8.421875 -8.421875 C 8.421875 -7.878906 8.316406 -7.390625 8.109375 -6.953125 C 7.898438 -6.523438 7.628906 -6.125 7.296875 -5.75 C 6.960938 -5.382812 6.59375 -5.039062 6.1875 -4.71875 C 5.78125 -4.40625 5.382812 -4.097656 5 -3.796875 C 4.625 -3.492188 4.28125 -3.1875 3.96875 -2.875 C 3.664062 -2.5625 3.4375 -2.226562 3.28125 -1.875 L 8.609375 -1.875 L 8.609375 0 Z M 0.578125 0 "/></g></g></g><g fill="#025699" fill-opacity="1"><g transform="translate(229.241386, 272.090222)"><g><path d="M 7.65625 -2.34375 L 7.65625 0 L 5.46875 0 L 5.46875 -2.34375 L 0.25 -2.34375 L 0.25 -4.046875 L 5.09375 -11.46875 L 7.65625 -11.46875 L 7.65625 -4.03125 L 9.1875 -4.03125 L 9.1875 -2.34375 Z M 5.46875 -7.796875 C 5.46875 -8.085938 5.476562 -8.398438 5.5 -8.734375 C 5.519531 -9.078125 5.535156 -9.300781 5.546875 -9.40625 C 5.398438 -9.101562 5.144531 -8.660156 4.78125 -8.078125 L 2.109375 -4.03125 L 5.46875 -4.03125 Z M 5.46875 -7.796875 "/></g></g></g></svg>